<svg xmlns="http://www.w3.org/2000/svg" width="32" height="32" viewBox="0 0 16 16" style="image-rendering: pixelated">
  <!-- 頭部 -->
  <rect x="4" y="2" width="8" height="6" fill="#00ffaa" />
  <rect x="3" y="3" width="10" height="4" fill="#00ffaa" />
  <rect x="2" y="4" width="12" height="2" fill="#00ffaa" />

  <!-- 耳 -->
  <rect x="1" y="1" width="2" height="3" fill="#00ffaa" />
  <rect x="13" y="1" width="2" height="3" fill="#00ffaa" />

  <!-- 目 -->
  <rect x="5" y="4" width="2" height="2" fill="#0a0a0a" />
  <rect x="9" y="4" width="2" height="2" fill="#0a0a0a" />

  <!-- 口 -->
  <rect x="7" y="6" width="2" height="1" fill="#0a0a0a" />

  <!-- 体 -->
  <rect x="5" y="8" width="6" height="4" fill="#00ffaa" />
  <rect x="4" y="9" width="8" height="2" fill="#00ffaa" />

  <!-- 腕 -->
  <rect x="2" y="9" width="2" height="3" fill="#00ffaa" />
  <rect x="12" y="9" width="2" height="3" fill="#00ffaa" />

  <!-- 足 -->
  <rect x="5" y="12" width="2" height="3" fill="#00ffaa" />
  <rect x="9" y="12" width="2" height="3" fill="#00ffaa" />

  <!-- ヘッドバンド (ハッカー風) -->
  <rect x="3" y="2" width="10" height="1" fill="#ff3366" />
  <rect x="11" y="1" width="3" height="1" fill="#ff3366" />
</svg> 